<svg width="45" height="58" fill="none" xmlns="http://www.w3.org/2000/svg"><g opacity=".8"><path d="M34.048 46.13c3.124 0 5.71 2.597 5.71 5.736 0 3.138-2.586 5.736-5.71 5.736-3.125 0-5.711-2.598-5.711-5.736a5.692 5.692 0 0 1 5.71-5.737Zm0 9.632a3.871 3.871 0 0 0 3.878-3.896 3.872 3.872 0 0 0-3.878-3.897 3.872 3.872 0 0 0-3.88 3.897 3.872 3.872 0 0 0 3.88 3.896Z" fill="#2DCFC1"/><path d="M13.468 25.998c3.125 0 5.711 2.598 5.711 5.736 0 3.14-2.586 5.737-5.71 5.737-3.125 0-5.711-2.598-5.711-5.737a5.692 5.692 0 0 1 5.71-5.736Zm0 9.633a3.871 3.871 0 0 0 3.88-3.897 3.871 3.871 0 0 0-3.88-3.896 3.871 3.871 0 0 0-3.878 3.896 3.871 3.871 0 0 0 3.878 3.897Z" fill="#FFAA01"/><path d="M6.465 7.274c.539 0 .862.433.862.866v4.004a.852.852 0 0 1-.862.866c-.539 0-.862-.433-.862-.866V8.14c0-.433.323-.866.862-.866ZM6.465.347c.539 0 .862.433.862.866v4.004a.852.852 0 0 1-.862.866c-.539 0-.862-.433-.862-.866V1.213c0-.433.323-.866.862-.866ZM.862 5.759h3.556c.538 0 .862.432.862.865s-.431.866-.862.866H.862C.323 7.49 0 7.057 0 6.624s.431-.865.862-.865ZM8.404 5.759h3.556c.538 0 .862.432.862.865s-.431.866-.862.866H8.404c-.539 0-.862-.433-.862-.866s.431-.865.862-.865Z" fill="#2DCFC1"/><path d="M38.034 29.57c.539 0 .862.433.862.866v4.004c0 .541-.431.866-.862.866-.539 0-.862-.433-.862-.866v-4.004c-.108-.541.323-.866.862-.866ZM38.034 22.643c.539 0 .862.433.862.866v4.004a.852.852 0 0 1-.862.866c-.539 0-.862-.433-.862-.866V23.51c-.108-.541.323-.866.862-.866ZM32.432 28.055h3.556c.538 0 .862.433.862.865a.852.852 0 0 1-.862.866h-3.556c-.539 0-.862-.433-.862-.866s.431-.865.862-.865ZM39.974 28.055h3.555c.539 0 .862.433.862.865a.852.852 0 0 1-.862.866h-3.556c-.538 0-.861-.433-.861-.866s.43-.865.861-.865Z" fill="#FFAA01"/></g></svg>